8888888888                888      8888888888                       
888                       888      888                              
888                       888      888                              
8888888  .d88b.   .d88b.  888      8888888 888d888 .d88b.   .d88b.  
888     d8P  Y8b d8P  Y8b 888      888     888P"  d8P  Y8b d8P  Y8b 
888     88888888 88888888 888      888     888    88888888 88888888 
888     Y8b.     Y8b.     888      888     888    Y8b.     Y8b.     
888      "Y8888   "Y8888  888      888     888     "Y8888   "Y8888  


################Credits To Feel Free, Pitic & Tony################


Genre:Action | Adventure | Sci-Fi
Language:English
IMDb: 
http://www.imdb.com/title/tt1392170
Source:BluRay.x264.DTS-HDChina Thanks
Encoder:Tony

Format : MPEG-4
Format profile : Base Media
Codec ID : isom
File size : 3.37 GiB
Duration : 2h 22mn
Overall bit rate mode : Variable
Overall bit rate : 3 382 Kbps

Video
ID : 1
Format : AVC
Format/Info : Advanced Video Codec
Format profile : High@L4.1
Format settings, CABAC : Yes
Format settings, ReFrames : 3 frames
Codec ID : avc1
Codec ID/Info : Advanced Video Coding
Duration : 2h 22mn
Bit rate : 3 000 Kbps
Maximum bit rate : 28.3 Mbps
Width : 1 280 pixels
Height : 528 pixels
Display aspect ratio : 2.40:1
Frame rate mode : Constant
Frame rate : 23.976 fps
Color space : YUV
Chroma subsampling : 4:2:0
Bit depth : 8 bits
Scan type : Progressive
Bits/(Pixel*Frame) : 0.185
Stream size : 2.92 GiB (87%)
Writing library : x264

Audio
ID : 2
Format : AAC
Format/Info : Advanced Audio Codec
Format profile : LC
Codec ID : 40
Duration : 2h 22mn
Bit rate mode : Variable
Bit rate : 444 Kbps
Maximum bit rate : 553 Kbps
Channel(s) : 6 channels
Channel positions : Front: L C R, Side: L R, LFE
Sampling rate : 48.0 KHz
Compression mode : Lossy
Stream size : 452 MiB (13%)


Plot:
Set in a future where the Capitol selects a boy and girl from the twelve districts to fight to the death on live television, Katniss Everdeen volunteers to take her younger sister's place for latest match.

Screen Shots:
                                     
http://img39.imageshack.us/img39/2001/vlcsnap2012080508h57m02.png
 
http://img821.imageshack.us/img821/1681/vlcsnap2012080508h58m26.png
 
http://img801.imageshack.us/img801/656/vlcsnap2012080508h58m54.png
 
http://img259.imageshack.us/img259/1417/vlcsnap2012080508h59m23.png
 
http://img38.imageshack.us/img38/1683/vlcsnap2012080508h59m53.png
 
http://img15.imageshack.us/img15/1082/vlcsnap2012080509h00m03.png


################Credits To Feel Free, Pitic & Tony################


8888888888                888      8888888888                       
888                       888      888                              
888                       888      888                              
8888888  .d88b.   .d88b.  888      8888888 888d888 .d88b.   .d88b.  
888     d8P  Y8b d8P  Y8b 888      888     888P"  d8P  Y8b d8P  Y8b 
888     88888888 88888888 888      888     888    88888888 88888888 
888     Y8b.     Y8b.     888      888     888    Y8b.     Y8b.     
888      "Y8888   "Y8888  888      888     888     "Y8888   "Y8888  